<svg width="192" height="192" viewBox="0 0 32 32" fill="none" xmlns="http://www.w3.org/2000/svg"><defs><linearGradient id="bgGradient" x1="0%" y1="0%" x2="100%" y2="100%"><stop offset="0%" style="stop-color:#FF6B35;stop-opacity:1" /><stop offset="100%" style="stop-color:#004E89;stop-opacity:1" /></linearGradient><linearGradient id="textGradient" x1="0%" y1="0%" x2="100%" y2="100%"><stop offset="0%" style="stop-color:#FFFFFF;stop-opacity:1" /><stop offset="100%" style="stop-color:#E0E0E0;stop-opacity:1" /></linearGradient></defs><circle cx="16" cy="16" r="16" fill="url(#bgGradient)"/><path d="M8 24 L12 12 L14 12 L18 24 L16 24 L15.2 22 L10.8 22 L10 24 Z M11.2 20 L14.8 20 L13 15.6 Z" fill="url(#textGradient)"/><path d="M20 12 L20 24 L24 24 C26.2 24 28 22.2 28 20 C28 18.8 27.4 17.8 26.6 17.2 C27.4 16.6 28 15.6 28 14.4 C28 12.2 26.2 10.4 24 10.4 L20 12 Z M22 14 L24 14 C25.1 14 26 14.9 26 16 C26 17.1 25.1 18 24 18 L22 18 Z M22 20 L24 20 C25.1 20 26 20.9 26 22 C26 23.1 25.1 24 24 24 L22 24 Z" fill="url(#textGradient)"/><circle cx="6" cy="8" r="1" fill="#FF6B35" opacity="0.8"/><circle cx="26" cy="8" r="1" fill="#004E89" opacity="0.8"/><circle cx="6" cy="24" r="1" fill="#004E89" opacity="0.8"/><circle cx="26" cy="24" r="1" fill="#FF6B35" opacity="0.8"/></svg>
